<svg width="142" height="39" viewBox="0 0 142 39" fill="none" xmlns="http://www.w3.org/2000/svg">
<path d="M45.1801 18.6725C45.1801 17.2288 45.4983 15.9392 46.1348 14.8039C46.7852 13.6545 47.6639 12.7645 48.7708 12.1338C49.8917 11.489 51.1439 11.1666 52.5277 11.1666C54.1467 11.1666 55.565 11.5871 56.7827 12.4281C58.0004 13.2691 58.8513 14.4325 59.3357 15.9182H55.9939C55.6618 15.2174 55.1914 14.6918 54.5825 14.3414C53.9875 13.9909 53.2957 13.8157 52.5069 13.8157C51.6628 13.8157 50.9087 14.019 50.2445 14.4255C49.5942 14.8179 49.0822 15.3786 48.7086 16.1074C48.3488 16.8363 48.1689 17.6913 48.1689 18.6725C48.1689 19.6396 48.3488 20.4946 48.7086 21.2375C49.0822 21.9664 49.5942 22.534 50.2445 22.9405C50.9087 23.333 51.6628 23.5292 52.5069 23.5292C53.2957 23.5292 53.9875 23.354 54.5825 23.0036C55.1914 22.6392 55.6618 22.1065 55.9939 21.4057H59.3357C58.8513 22.9055 58.0004 24.0758 56.7827 24.9168C55.5788 25.7438 54.1605 26.1573 52.5277 26.1573C51.1439 26.1573 49.8917 25.8419 48.7708 25.2112C47.6639 24.5664 46.7852 23.6764 46.1348 22.541C45.4983 21.4057 45.1801 20.1162 45.1801 18.6725Z" fill="white"/>
<path d="M61.0704 20.1652C61.0704 18.9878 61.2987 17.9436 61.7554 17.0325C62.2258 16.1215 62.8554 15.4206 63.6441 14.9301C64.4467 14.4395 65.3392 14.1942 66.3217 14.1942C67.1796 14.1942 67.9268 14.3694 68.5633 14.7198C69.2137 15.0702 69.7326 15.5117 70.12 16.0444V14.3834H73.0466V26.0312H70.12V24.3281C69.7464 24.8748 69.2275 25.3303 68.5633 25.6948C67.913 26.0452 67.1588 26.2204 66.3009 26.2204C65.3323 26.2204 64.4467 25.9681 63.6441 25.4635C62.8554 24.9589 62.2258 24.2511 61.7554 23.34C61.2987 22.4149 61.0704 21.3566 61.0704 20.1652ZM70.12 20.2073C70.12 19.4924 69.9817 18.8827 69.7049 18.3781C69.4282 17.8595 69.0545 17.467 68.5841 17.2007C68.1136 16.9204 67.6085 16.7802 67.0689 16.7802C66.5292 16.7802 66.0311 16.9134 65.5745 17.1797C65.1178 17.446 64.7442 17.8385 64.4536 18.3571C64.1769 18.8617 64.0385 19.4644 64.0385 20.1652C64.0385 20.8661 64.1769 21.4828 64.4536 22.0154C64.7442 22.534 65.1178 22.9335 65.5745 23.2138C66.0449 23.4942 66.5431 23.6343 67.0689 23.6343C67.6085 23.6343 68.1136 23.5012 68.5841 23.2349C69.0545 22.9545 69.4282 22.5621 69.7049 22.0575C69.9817 21.5389 70.12 20.9221 70.12 20.2073Z" fill="white"/>
<path d="M82.2568 14.2152C83.6267 14.2152 84.7337 14.6567 85.5777 15.5398C86.4218 16.4088 86.8439 17.6282 86.8439 19.1981V26.0312H83.938V19.5976C83.938 18.6725 83.7097 17.9646 83.2531 17.4741C82.7964 16.9695 82.1738 16.7172 81.385 16.7172C80.5825 16.7172 79.9459 16.9695 79.4755 17.4741C79.0188 17.9646 78.7905 18.6725 78.7905 19.5976V26.0312H75.8847V14.3834H78.7905V15.8341C79.178 15.3295 79.6692 14.9371 80.2642 14.6567C80.873 14.3624 81.5372 14.2152 82.2568 14.2152Z" fill="white"/>
<path d="M88.8599 20.1652C88.8599 18.9878 89.0883 17.9436 89.5449 17.0325C90.0154 16.1215 90.6519 15.4206 91.4544 14.9301C92.257 14.4395 93.1495 14.1942 94.132 14.1942C94.8792 14.1942 95.5918 14.3624 96.2698 14.6988C96.9479 15.0212 97.4875 15.4557 97.8888 16.0023V10.4728H100.836V26.0312H97.8888V24.3071C97.529 24.8818 97.024 25.3443 96.3736 25.6948C95.7233 26.0452 94.9691 26.2204 94.1112 26.2204C93.1426 26.2204 92.257 25.9681 91.4544 25.4635C90.6519 24.9589 90.0154 24.2511 89.5449 23.34C89.0883 22.4149 88.8599 21.3566 88.8599 20.1652ZM97.9096 20.2073C97.9096 19.4924 97.7712 18.8827 97.4944 18.3781C97.2177 17.8595 96.8441 17.467 96.3736 17.2007C95.9032 16.9204 95.3981 16.7802 94.8584 16.7802C94.3188 16.7802 93.8206 16.9134 93.364 17.1797C92.9074 17.446 92.5338 17.8385 92.2432 18.3571C91.9664 18.8617 91.8281 19.4644 91.8281 20.1652C91.8281 20.8661 91.9664 21.4828 92.2432 22.0154C92.5338 22.534 92.9074 22.9335 93.364 23.2138C93.8345 23.4942 94.3326 23.6343 94.8584 23.6343C95.3981 23.6343 95.9032 23.5012 96.3736 23.2349C96.8441 22.9545 97.2177 22.5621 97.4944 22.0575C97.7712 21.5389 97.9096 20.9221 97.9096 20.2073Z" fill="white"/>
<path d="M106.58 10.4728V26.0312H103.674V10.4728H106.58Z" fill="white"/>
<path d="M120.14 19.955C120.14 20.3755 120.113 20.7539 120.057 21.0903H111.651C111.72 21.9313 112.011 22.5901 112.523 23.0667C113.035 23.5432 113.665 23.7815 114.412 23.7815C115.491 23.7815 116.259 23.3119 116.716 22.3728H119.85C119.518 23.4942 118.881 24.4193 117.94 25.1481C116.999 25.863 115.844 26.2204 114.474 26.2204C113.367 26.2204 112.371 25.9751 111.485 25.4845C110.613 24.9799 109.928 24.2721 109.43 23.361C108.946 22.4499 108.704 21.3987 108.704 20.2073C108.704 19.0019 108.946 17.9436 109.43 17.0325C109.915 16.1215 110.593 15.4206 111.464 14.9301C112.336 14.4395 113.339 14.1942 114.474 14.1942C115.567 14.1942 116.543 14.4325 117.401 14.909C118.272 15.3856 118.943 16.0654 119.414 16.9484C119.898 17.8175 120.14 18.8196 120.14 19.955ZM117.131 19.114C117.117 18.3571 116.847 17.7544 116.321 17.3059C115.795 16.8433 115.152 16.612 114.391 16.612C113.671 16.612 113.063 16.8363 112.564 17.2848C112.08 17.7193 111.783 18.3291 111.672 19.114H117.131Z" fill="white"/>
<path d="M121.514 20.1652C121.514 18.9878 121.742 17.9436 122.199 17.0325C122.67 16.1215 123.299 15.4206 124.088 14.9301C124.89 14.4395 125.783 14.1942 126.765 14.1942C127.623 14.1942 128.371 14.3694 129.007 14.7198C129.657 15.0702 130.176 15.5117 130.564 16.0444V14.3834H133.49V26.0312H130.564V24.3281C130.19 24.8748 129.671 25.3303 129.007 25.6948C128.357 26.0452 127.603 26.2204 126.745 26.2204C125.776 26.2204 124.89 25.9681 124.088 25.4635C123.299 24.9589 122.67 24.2511 122.199 23.34C121.742 22.4149 121.514 21.3566 121.514 20.1652ZM130.564 20.2073C130.564 19.4924 130.425 18.8827 130.149 18.3781C129.872 17.8595 129.498 17.467 129.028 17.2007C128.557 16.9204 128.052 16.7802 127.513 16.7802C126.973 16.7802 126.475 16.9134 126.018 17.1797C125.562 17.446 125.188 17.8385 124.897 18.3571C124.621 18.8617 124.482 19.4644 124.482 20.1652C124.482 20.8661 124.621 21.4828 124.897 22.0154C125.188 22.534 125.562 22.9335 126.018 23.2138C126.489 23.4942 126.987 23.6343 127.513 23.6343C128.052 23.6343 128.557 23.5012 129.028 23.2349C129.498 22.9545 129.872 22.5621 130.149 22.0575C130.425 21.5389 130.564 20.9221 130.564 20.2073Z" fill="white"/>
<path d="M141.6 16.8013H139.587V26.0312H136.64V16.8013H135.332V14.3834H136.64V13.7947C136.64 12.365 137.041 11.3138 137.844 10.641C138.646 9.96819 139.857 9.65282 141.476 9.69487V12.1758C140.77 12.1618 140.279 12.2809 140.002 12.5332C139.726 12.7855 139.587 13.2411 139.587 13.8998V14.3834H141.6V16.8013Z" fill="white"/>
<g clip-path="url(#clip0_105_2645)">
<mask id="mask0_105_2645" style="mask-type:alpha" maskUnits="userSpaceOnUse" x="0" y="0" width="39" height="39">
<circle cx="19.0086" cy="19.6087" r="19.0086" fill="#F578A5"/>
</mask>
<g mask="url(#mask0_105_2645)">
<circle cx="19.0086" cy="19.6087" r="19.0086" fill="white"/>
<path d="M10.2649 38.3417V38.7575H10.6807H28.3118H28.7276V38.3417V30.9437C28.7276 30.2642 28.1891 29.7069 27.51 29.6838L11.5684 29.1403C10.8558 29.116 10.2649 29.6872 10.2649 30.4002V38.3417Z" fill="#272727" stroke="#272727" stroke-width="0.831626"/>
<g clip-path="url(#clip1_105_2645)">
<path d="M13.9273 13.9477C17.8011 8.56151 16.1348 4.17734 16.1395 4.17214C16.0574 3.95258 16.1688 3.70806 16.3884 3.62592C16.4991 3.58449 16.6221 3.59117 16.7277 3.6443C23.7193 6.98982 26.7279 11.3086 27.3041 15.2133C27.5331 16.7303 27.39 18.2803 26.8869 19.7297C26.4259 21.0671 25.6581 22.278 24.6449 23.2653C22.696 25.1474 19.9724 26.015 17.2844 25.1354C16.5968 24.9111 15.9479 24.582 15.3608 24.1597C14.1829 23.3143 13.2894 22.1312 12.7986 20.7669C12.2778 19.3078 12.2612 17.7163 12.7516 16.2467C13.0224 15.4242 13.419 14.6487 13.9273 13.9477Z" fill="#272727"/>
<path d="M16.2246 4.3111C16.0543 4.15003 16.0468 3.8814 16.2079 3.71114C16.3689 3.54088 16.6376 3.53336 16.8078 3.69443C16.8204 3.70628 16.8321 3.71888 16.8431 3.73217C16.8587 3.74622 20.2343 7.28455 20.7166 14.1234L20.7216 14.1875C20.8257 15.7859 20.7743 17.3907 20.5681 18.9791L22.8763 17.2103C23.0697 17.0777 23.3338 17.127 23.4664 17.3203C23.5863 17.4953 23.5587 17.732 23.4015 17.8746L20.385 20.1793C19.7097 24.1495 17.3291 29.7662 20.4805 33.2816C20.6323 33.4603 20.6106 33.7281 20.4319 33.8799C20.2619 34.0244 20.0091 34.0125 19.8533 33.8528C16.0742 29.6405 18.8241 24.4222 19.5766 19.9096L19.5865 19.8463C19.8925 18.0505 19.9974 16.2263 19.8992 14.4073L17.1861 12.4194C16.9926 12.2871 16.943 12.023 17.0752 11.8295C17.2075 11.636 17.4716 11.5864 17.6652 11.7186C17.6732 11.7241 17.681 11.7299 17.6886 11.7359L19.7908 13.2836C19.135 7.35533 16.2369 4.32532 16.2246 4.3111Z" fill="white"/>
</g>
</g>
</g>
<defs>
<clipPath id="clip0_105_2645">
<rect width="38.0172" height="38.0172" fill="white" transform="translate(0 0.600098)"/>
</clipPath>
<clipPath id="clip1_105_2645">
<rect width="23.3299" height="23.3299" fill="white" transform="translate(2.24084 19.2229) rotate(-48)"/>
</clipPath>
</defs>
</svg>
